<?xml version="1.0" encoding="utf-8"?>
<!-- Generator: Adobe Illustrator 26.0.0, SVG Export Plug-In . SVG Version: 6.00 Build 0)  -->
<svg version="1.1" id="Capa_1" xmlns="http://www.w3.org/2000/svg" xmlns:xlink="http://www.w3.org/1999/xlink" x="0px" y="0px"
	 viewBox="0 0 512 512" style="enable-background:new 0 0 512 512;" xml:space="preserve">
<style type="text/css">
	.st0{clip-path:url(#SVGID_00000096036430555812678310000014995100950529451943_);}
	.st1{fill:#1A1A1A;}
	.st2{fill:#666666;}
	.st3{fill:#02C9AF;}
	.st4{fill:#049CE4;}
	.st5{fill:url(#SVGID_00000030465580766331201700000017569593783321415564_);}
</style>
<g>
	<defs>
		<ellipse id="SVGID_1_" cx="256" cy="256" rx="241.8" ry="241.9"/>
	</defs>
	<clipPath id="SVGID_00000177448769139019661020000000029526497333168024_">
		<use xlink:href="#SVGID_1_"  style="overflow:visible;"/>
	</clipPath>
	<g transform="matrix(1 0 0 1 0 0)" style="clip-path:url(#SVGID_00000177448769139019661020000000029526497333168024_);">
		
			<image style="overflow:visible;" width="1080" height="1080" xlink:href="../../../../../OneDrive/Documentos/linkedin/foto_Mesa de trabajo 1.png"  transform="matrix(0.4551 0 0 0.4551 9.669 10.9206)">
		</image>
	</g>
	<g style="clip-path:url(#SVGID_00000177448769139019661020000000029526497333168024_);">
		<rect x="-59.8" y="11.7" class="st1" width="631" height="493.3"/>
		<g>
			<g>
				<g>
					<g>
						<g>
							<g>
								<path class="st2" d="M357.6,420.6l36.2,36.2L257.1,593.4l-36.2-36.2L357.6,420.6 M357.6,419.2L219.5,557.2l37.6,37.6
									l138.1-138.1L357.6,419.2L357.6,419.2z"/>
							</g>
						</g>
						<g>
							<g>
								<path class="st2" d="M257.3,319.4l36.2,36.2L193.3,455.8l-0.7,0.7l0.7,0.7L206,470l0.7,0.7l0.7-0.7l51.4-51.4l36.2,36.2
									l-88.2,88.2l-4.2-4.2l-32.7-32.7l-12.8-12.8l-36.9-36.9l36.9-36.9L257.3,319.4 M257.3,318l-101,101l-37.6,37.6l37.6,37.6
									l12.8,12.8l32.7,32.7l4.9,4.9l89.7-89.7l-37.6-37.6l-52.1,52.1L194,456.5l101-101L257.3,318L257.3,318z"/>
							</g>
						</g>
					</g>
				</g>
				<g>
					<g>
						<g>
							<g>
								<path class="st2" d="M354.9,20.5l36.2,36.2L254.5,193.4l-36.2-36.2L354.9,20.5 M354.9,19.1L216.9,157.2l37.6,37.6
									L392.5,56.7L354.9,19.1L354.9,19.1z"/>
							</g>
						</g>
						<g>
							<g>
								<path class="st2" d="M254.7-80.7l36.2,36.2L190.6,55.8l-0.7,0.7l0.7,0.7l12.8,12.8l0.7,0.7l0.7-0.7l51.4-51.4l36.2,36.2
									L204.1,143l-4.2-4.2l-32.7-32.7l-12.8-12.8l-36.9-36.9l36.9-36.9L254.7-80.7 M254.7-82.1l-101,101l-37.6,37.6l37.6,37.6
									l12.8,12.8l32.7,32.7l4.9,4.9l89.7-89.7l-37.6-37.6l-52.1,52.1l-12.8-12.8l101-101L254.7-82.1L254.7-82.1z"/>
							</g>
						</g>
					</g>
				</g>
			</g>
			<g>
				<g>
					<g>
						<g>
							
								<rect x="207.1" y="282.4" transform="matrix(0.7071 -0.7071 0.7071 0.7071 -129.2142 305.9477)" class="st3" width="195.2" height="53.2"/>
						</g>
					</g>
					<g>
						<polygon class="st4" points="256.2,219.2 204.1,271.2 191.3,258.5 292.3,157.5 254.7,119.9 153.8,220.9 116.2,258.5 
							153.8,296.1 166.5,308.8 199.2,341.5 204.1,346.4 293.8,256.7 						"/>
					</g>
				</g>
			</g>
		</g>
	</g>
	<g style="clip-path:url(#SVGID_00000177448769139019661020000000029526497333168024_);">
		
			<linearGradient id="SVGID_00000075843189771524032910000012076573244765623227_" gradientUnits="userSpaceOnUse" x1="13.9926" y1="256.3781" x2="497.3247" y2="256.3781">
			<stop  offset="0" style="stop-color:#049CE4"/>
			<stop  offset="1" style="stop-color:#02C9AF"/>
		</linearGradient>
		<path style="fill:url(#SVGID_00000075843189771524032910000012076573244765623227_);" d="M255.7,498c-32.6,0-64.3-6.4-94.1-19
			c-28.8-12.2-54.6-29.6-76.8-51.8s-39.6-48-51.8-76.8c-12.6-29.8-19-61.5-19-94.1s6.4-64.3,19-94.1c12.2-28.8,29.6-54.6,51.8-76.8
			s48-39.6,76.8-51.8c29.8-12.6,61.5-19,94.1-19s64.3,6.4,94.1,19c28.8,12.2,54.6,29.6,76.8,51.8s39.6,48,51.8,76.8
			c12.6,29.8,19,61.5,19,94.1s-6.4,64.3-19,94.1c-12.2,28.8-29.6,54.6-51.8,76.8s-48,39.6-76.8,51.8
			C319.9,491.7,288.3,498,255.7,498z M255.7,35.2c-122,0-221.2,99.2-221.2,221.2s99.2,221.2,221.2,221.2s221.2-99.2,221.2-221.2
			S377.6,35.2,255.7,35.2z"/>
	</g>
</g>
</svg>
