<?xml version="1.0" encoding="utf-8"?>
<!-- Generator: Adobe Illustrator 26.0.0, SVG Export Plug-In . SVG Version: 6.00 Build 0)  -->
<svg version="1.1" id="Capa_1" xmlns="http://www.w3.org/2000/svg" xmlns:xlink="http://www.w3.org/1999/xlink" x="0px" y="0px"
	 viewBox="0 0 512 512" style="enable-background:new 0 0 512 512;" xml:space="preserve">
<style type="text/css">
	.st0{fill:url(#SVGID_1_);}
	.st1{fill:#02C9AF;}
	.st2{fill:#049CE4;}
</style>
<linearGradient id="SVGID_1_" gradientUnits="userSpaceOnUse" x1="14" y1="257.7" x2="497.4" y2="257.7" gradientTransform="matrix(1 0 0 -1 0 514)">
	<stop  offset="0" style="stop-color:#049CE4"/>
	<stop  offset="1" style="stop-color:#02C9AF"/>
</linearGradient>
<path class="st0" d="M255.7,498c-32.6,0-64.3-6.4-94.1-19c-28.8-12.2-54.6-29.6-76.8-51.8s-39.6-48-51.8-76.8
	c-12.6-29.8-19-61.5-19-94.1s6.4-64.3,19-94.1c12.2-28.8,29.6-54.6,51.8-76.8s48-39.6,76.8-51.8c29.8-12.6,61.5-19,94.1-19
	s64.3,6.4,94.1,19c28.8,12.2,54.6,29.6,76.8,51.8s39.6,48,51.8,76.8c12.6,29.8,19,61.5,19,94.1s-6.4,64.3-19,94.1
	c-12.2,28.8-29.6,54.6-51.8,76.8s-48,39.6-76.8,51.8C319.9,491.7,288.3,498,255.7,498z M255.7,35.2c-122,0-221.2,99.2-221.2,221.2
	s99.2,221.2,221.2,221.2s221.2-99.2,221.2-221.2S377.6,35.2,255.7,35.2z"/>
<rect x="195.6" y="288.3" transform="matrix(0.7071 -0.7071 0.7071 0.7071 -134.3885 318.3286)" class="st1" width="243" height="66.2"/>
<polygon class="st2" points="256.6,209.6 191.8,274.3 175.9,258.5 301.6,132.8 254.8,86 129.2,211.7 82.4,258.5 129.2,305.3 
	145,321.2 185.7,361.9 191.8,368 303.5,256.3 "/>
</svg>
